<svg width="213" height="37" viewBox="0 0 213 37" fill="none" xmlns="http://www.w3.org/2000/svg">
<path d="M71.6839 27.1333V15.4413H74.1751L74.2997 16.6746C74.8312 16.2635 75.4623 15.9182 76.193 15.6386C76.9404 15.3426 77.7625 15.1946 78.6593 15.1946C80.1873 15.1946 81.3 15.5482 81.9976 16.2553C82.6951 16.9624 83.0439 18.0642 83.0439 19.5606V27.1333H80.3534V19.684C80.3534 18.7795 80.1624 18.1464 79.7804 17.7846C79.415 17.4229 78.7175 17.242 77.6878 17.242C77.0733 17.242 76.4671 17.3653 75.8692 17.612C75.2879 17.8586 74.7979 18.1793 74.3993 18.574V27.1333H71.6839Z" fill="#E15E36"/>
<path d="M61.747 27.38C60.9997 27.38 60.3021 27.2484 59.6544 26.9853C59.0233 26.7222 58.5167 26.3275 58.1347 25.8013C57.7528 25.2586 57.5618 24.5926 57.5618 23.8033C57.5618 22.6851 57.9438 21.7889 58.7077 21.1146C59.4883 20.424 60.6841 20.0786 62.2951 20.0786H66.0818V19.5606C66.0818 19.0015 65.9904 18.5575 65.8077 18.2286C65.6416 17.8998 65.3261 17.6613 64.8611 17.5133C64.4126 17.3653 63.7483 17.2913 62.8681 17.2913C61.473 17.2913 60.1693 17.4969 58.9569 17.908V15.91C59.4883 15.6962 60.136 15.5235 60.9 15.392C61.664 15.2604 62.4861 15.1946 63.3663 15.1946C65.0936 15.1946 66.4056 15.54 67.3025 16.2306C68.2159 16.9213 68.6726 18.0478 68.6726 19.61V27.1333H66.3558L66.1814 25.9493C65.6998 26.4098 65.1019 26.7633 64.3877 27.01C63.6902 27.2566 62.81 27.38 61.747 27.38ZM62.4695 25.456C63.2833 25.456 63.9891 25.3244 64.587 25.0613C65.2015 24.7818 65.6998 24.4118 66.0818 23.9513V21.904H62.3449C61.5477 21.904 60.9664 22.0602 60.6011 22.3726C60.2523 22.6686 60.0779 23.1291 60.0779 23.754C60.0779 24.3624 60.2855 24.7982 60.7007 25.0613C61.1159 25.3244 61.7055 25.456 62.4695 25.456Z" fill="#E15E36"/>
<path d="M50.6583 27.38C48.5989 27.38 47.0045 26.8784 45.8752 25.8753C44.7458 24.8722 44.1812 23.3346 44.1812 21.2626C44.1812 19.388 44.6628 17.908 45.6261 16.8226C46.5893 15.7373 48.0509 15.1946 50.0106 15.1946C51.8043 15.1946 53.1496 15.6633 54.0464 16.6006C54.9599 17.5215 55.4166 18.7138 55.4166 20.1773V22.348H46.772C46.9049 23.4826 47.3201 24.2638 48.0176 24.6913C48.7152 25.1189 49.7781 25.3326 51.2064 25.3326C51.8043 25.3326 52.4188 25.2751 53.0499 25.16C53.681 25.0449 54.2291 24.8969 54.6941 24.716V26.6893C54.1627 26.9195 53.5482 27.0922 52.8506 27.2073C52.1697 27.3224 51.4389 27.38 50.6583 27.38ZM46.772 20.5966H53.025V19.7826C53.025 18.9769 52.8008 18.352 52.3524 17.908C51.904 17.4475 51.1483 17.2173 50.0854 17.2173C48.8231 17.2173 47.9512 17.4886 47.4696 18.0313C47.0045 18.574 46.772 19.4291 46.772 20.5966Z" fill="#E15E36"/>
<path d="M32.2233 27.1333V11.248H34.9387V25.0613H43.1598V27.1333H32.2233Z" fill="#E15E36"/>
<path d="M26.2285 27.38C24.1525 27.38 22.583 26.862 21.5201 25.826C20.4572 24.7735 19.9257 23.2606 19.9257 21.2873C19.9257 19.2318 20.507 17.7024 21.6696 16.6993C22.8488 15.6962 24.4182 15.1946 26.378 15.1946C27.1918 15.1946 27.8727 15.2522 28.4208 15.3673C28.9855 15.4824 29.5253 15.6633 30.0401 15.91V17.908C29.1765 17.4804 28.1302 17.2666 26.9012 17.2666C25.5393 17.2666 24.493 17.5709 23.7622 18.1793C23.0315 18.7713 22.6661 19.8073 22.6661 21.2873C22.6661 22.6851 22.9899 23.7129 23.6377 24.3706C24.2854 25.012 25.3566 25.3326 26.8513 25.3326C28.0305 25.3326 29.1017 25.1106 30.065 24.6666V26.714C29.5169 26.9278 28.9274 27.0922 28.2962 27.2073C27.6817 27.3224 26.9925 27.38 26.2285 27.38Z" fill="#E15E36"/>
<path d="M1.56946 27.1333V11.248H4.35963L9.44174 21.534L14.4989 11.248H17.2891V27.1333H14.5986V15.614L10.2638 24.3953H8.61963L4.25998 15.614V27.1333H1.56946Z" fill="#E15E36"/>
<path d="M182.882 27.1333V10.508H187.565V18.722L190.854 15.4413H196.16L191.452 20.3747L196.434 27.1333H191.452L188.537 22.792L187.565 23.754V27.1333H182.882Z" fill="#E15E36"/>
<path d="M174.176 27.38C171.818 27.38 170.074 26.862 168.945 25.826C167.832 24.79 167.276 23.2771 167.276 21.2873C167.276 19.314 167.84 17.8093 168.97 16.7733C170.099 15.7209 171.834 15.1947 174.176 15.1947C176.535 15.1947 178.278 15.7209 179.408 16.7733C180.554 17.8093 181.127 19.314 181.127 21.2873C181.127 23.2771 180.562 24.79 179.433 25.826C178.303 26.862 176.551 27.38 174.176 27.38ZM174.176 24.0007C174.94 24.0007 175.488 23.7869 175.82 23.3593C176.169 22.9318 176.344 22.2411 176.344 21.2873C176.344 20.35 176.169 19.6676 175.82 19.24C175.488 18.796 174.94 18.574 174.176 18.574C173.429 18.574 172.889 18.796 172.557 19.24C172.225 19.6676 172.059 20.35 172.059 21.2873C172.059 22.2411 172.225 22.9318 172.557 23.3593C172.889 23.7869 173.429 24.0007 174.176 24.0007Z" fill="#E15E36"/>
<path d="M146.462 27.1333V15.4413H150.797L150.921 16.3787C151.436 16.0333 152.009 15.7538 152.64 15.54C153.288 15.3098 153.994 15.1947 154.758 15.1947C155.522 15.1947 156.12 15.3016 156.552 15.5153C156.983 15.7291 157.332 16.0416 157.598 16.4527C158.129 16.0744 158.727 15.7702 159.392 15.54C160.073 15.3098 160.87 15.1947 161.783 15.1947C163.162 15.1947 164.175 15.5564 164.823 16.28C165.47 16.9871 165.794 18.0724 165.794 19.536V27.1333H161.185V20.0787C161.185 19.5524 161.077 19.1824 160.861 18.9687C160.646 18.7384 160.288 18.6233 159.79 18.6233C159.143 18.6233 158.611 18.8536 158.196 19.314C158.229 19.5278 158.246 19.7333 158.246 19.9307C158.246 20.1116 158.246 20.3171 158.246 20.5473V27.1333H153.911V20.0047C153.911 19.5278 153.828 19.1824 153.662 18.9687C153.496 18.7384 153.18 18.6233 152.715 18.6233C152.4 18.6233 152.092 18.7056 151.793 18.87C151.494 19.0344 151.229 19.2318 150.996 19.462V27.1333H146.462Z" fill="#E15E36"/>
<path d="M134.439 31.4747C133.775 31.4747 133.21 31.4336 132.745 31.3513C132.297 31.2856 131.849 31.1705 131.4 31.006V27.8487C131.666 27.9473 131.915 28.0131 132.147 28.046C132.397 28.0789 132.654 28.0953 132.92 28.0953C133.584 28.0953 134.066 28.0131 134.365 27.8487C134.68 27.6842 134.996 27.3553 135.311 26.862L129.98 15.4413H134.888L137.653 22.3233L140.344 15.4413H145.226L140.867 26.0233C140.186 27.6842 139.347 29.008 138.351 29.9947C137.371 30.9813 136.067 31.4747 134.439 31.4747Z" fill="#E15E36"/>
<path d="M128.164 27.38C126.719 27.38 125.689 27.0758 125.075 26.4673C124.46 25.8589 124.153 24.9051 124.153 23.606V10.508H128.836V23.088C128.836 23.4498 128.911 23.6964 129.061 23.828C129.21 23.9431 129.443 24.0007 129.758 24.0007C129.974 24.0007 130.182 23.9842 130.381 23.9513C130.597 23.9184 130.796 23.8691 130.979 23.8033V26.8867C130.547 27.0511 130.124 27.1744 129.708 27.2567C129.31 27.3389 128.795 27.38 128.164 27.38Z" fill="#E15E36"/>
<path d="M112.13 31.4747C111.466 31.4747 110.901 31.4336 110.436 31.3513C109.988 31.2856 109.539 31.1705 109.091 31.006V27.8487C109.357 27.9473 109.606 28.0131 109.838 28.046C110.087 28.0789 110.345 28.0953 110.611 28.0953C111.275 28.0953 111.757 28.0131 112.056 27.8487C112.371 27.6842 112.687 27.3553 113.002 26.862L107.671 15.4413H112.579L115.344 22.3233L118.034 15.4413H122.917L118.558 26.0233C117.877 27.6842 117.038 29.008 116.041 29.9947C115.062 30.9813 113.758 31.4747 112.13 31.4747Z" fill="#E15E36"/>
<path d="M89.7526 27.1333V11.248H94.3116L98.2975 19.314L102.259 11.248H106.793V27.1333H102.109V19.1907L99.5431 24.42H97.027L94.4361 19.1907V27.1333H89.7526Z" fill="#E15E36"/>
</svg>
